<svg width="108" height="28" viewBox="0 0 108 28" fill="none" xmlns="http://www.w3.org/2000/svg">
<path fill-rule="evenodd" clip-rule="evenodd" d="M3.18107 1.81538L4.39154 1.47938C4.39154 1.47938 3.8535 1.07597 4.79521 1.21078C5.7364 1.34508 6.47628 1.27819 6.61066 1.21078C6.74505 1.14338 6.61066 0.874783 7.01433 0.874783C7.41799 0.874783 7.28309 1.07649 7.68676 1.07649C8.09042 1.07649 8.35919 0.807894 8.56102 0.740487C8.76285 0.673079 8.82978 0.471894 9.09907 0.740487C9.36783 1.00908 9.43528 1.21078 9.83895 1.21078C10.2426 1.21078 10.377 1.74849 10.377 2.01708C10.377 2.28567 10.915 2.55478 10.9825 2.82338C11.0499 3.09197 10.915 3.49538 11.5205 3.36108C12.1255 3.22678 12.6636 3.36108 12.6636 3.49538C12.6636 3.62967 12.8654 4.50338 12.7979 4.77197C12.7305 5.04056 12.4617 5.51138 12.2599 5.57827C12.0581 5.64567 11.5875 5.51086 11.52 5.71256C11.4526 5.91426 11.4526 6.58627 11.52 6.78797C11.5875 6.98967 11.6544 7.32567 12.0581 7.45997C12.4617 7.59426 12.4617 7.72856 12.663 7.93027C12.8649 8.13197 12.8649 8.26627 13.2011 8.26627C13.5373 8.26627 14.0754 8.19886 14.1423 8.40056C14.2097 8.60226 14.4785 8.60226 14.8822 8.80397C15.2858 9.00567 15.1509 9.74456 15.4871 9.87938C15.8234 10.0137 16.227 9.74508 16.3614 9.81197C16.4958 9.87938 16.7651 10.5514 17.1682 10.6857C17.5719 10.82 18.0425 11.0217 18.0425 11.0217C18.0425 11.0217 18.1099 11.828 18.1099 11.9623C18.1099 12.0966 17.4375 12.2309 17.4375 12.5669C17.4375 12.9029 17.4375 13.5749 17.7063 13.7766C17.975 13.9783 18.1099 13.9783 18.4456 14.0452C18.7818 14.1126 19.1855 14.6497 19.1855 14.6497C19.1855 14.6497 18.9167 15.1875 18.8493 15.5903C18.7818 15.9937 18.4456 16.1949 18.4456 16.3297C18.4456 16.4646 18.9837 16.5983 19.0506 16.8674C19.1181 17.136 19.3194 17.472 19.3868 17.7412C19.4543 18.0097 18.5126 18.8166 18.5126 18.8166L17.6383 18.212C17.6383 18.212 17.0333 18.4137 16.5622 18.6154C16.0916 18.8171 15.4192 18.8171 15.2173 19.0188C15.0155 19.2205 14.4775 19.7582 13.9399 19.6908C13.4019 19.6234 12.8638 19.9594 12.3263 19.7582C11.7883 19.5565 11.3177 18.8845 11.3177 18.8845C11.3177 18.8845 10.6452 18.6828 10.4434 18.5485C10.2416 18.4142 10.0397 18.0782 9.70353 17.7422C9.36731 17.4062 8.49305 17.4062 8.35867 17.4062C8.22429 17.4062 7.75369 17.0028 7.61931 16.9359C7.48493 16.8685 5.7364 16.8685 5.7364 16.8685C5.7364 16.8685 5.7364 17.0702 5.33274 17.2045C4.92907 17.3388 4.45848 17.0028 4.18971 16.9359C3.92095 16.8685 3.71911 16.9359 3.58473 17.0702C3.45035 17.2045 3.04668 17.8765 2.64354 18.0782C2.24039 18.2799 1.70234 18.2799 1.70234 18.1456C1.70234 18.0113 1.97111 17.7422 2.03856 17.3393C2.10601 16.9359 1.7698 16.9359 1.50051 16.2639C1.23175 15.5919 1.50051 15.3902 1.63489 15.1885C1.76928 14.9868 1.63489 14.7851 1.56744 14.2479C1.49999 13.7102 1.23123 13.3073 1.49999 12.9039C1.76876 12.5005 1.97059 12.0302 2.17242 11.6942C2.37426 11.3582 2.03804 11.4256 2.37426 11.0222C2.71047 10.6188 3.31545 10.3502 3.3829 10.1485C3.45035 9.94678 3.04668 9.61078 3.04668 9.40908C3.04668 9.20738 3.31545 8.80449 3.45035 8.73708C3.58473 8.66967 3.85401 8.66967 4.12278 8.53538C4.39154 8.40108 4.92959 8.40108 4.99704 7.93078C5.06449 7.46049 5.13142 7.32619 5.13142 7.19138C5.13142 7.05708 4.86266 6.98967 4.59338 6.51938C4.32461 6.04908 4.45899 5.51138 4.45899 5.30967C4.45899 5.10797 3.92095 4.83938 3.92095 4.57026C3.92095 4.30167 3.71911 4.03256 3.71911 3.83086C3.71911 3.62915 3.65166 3.22626 3.65166 2.95715C3.65166 2.68856 3.248 2.62115 3.11362 2.41945C2.97923 2.21826 3.18107 1.81538 3.18107 1.81538Z" fill="#01A0C7"/>
<path fill-rule="evenodd" clip-rule="evenodd" d="M7.68623 25.2674C8.15682 24.9314 8.08989 24.9989 8.42559 24.7297C8.7618 24.4611 9.16547 24.2594 9.29985 23.856C9.43423 23.4526 9.43423 22.9823 9.77045 22.9154C10.1067 22.848 10.241 22.5794 10.3085 22.3108C10.3759 22.0423 10.4429 22.2434 10.5778 21.9074C10.7122 21.5714 10.6452 21.84 11.0484 21.504C11.452 21.168 11.7883 20.2274 11.7883 20.2274L12.2589 20.16C12.2589 20.16 12.6625 20.6303 12.5276 20.832C12.3932 21.0337 12.5276 21.6383 12.2589 21.6383C11.9901 21.6383 11.9901 22.1086 11.9901 22.1086C11.9901 22.1086 11.452 22.512 11.3177 22.7806C11.1833 23.0492 11.0489 23.2509 10.8471 23.3183C10.6452 23.3857 10.6452 23.52 10.6452 23.856C10.6452 24.192 10.5778 24.3937 10.8471 24.6623C11.1163 24.9309 10.9145 25.2669 11.3177 25.4686C11.7213 25.6703 11.6539 25.872 11.7213 26.0063C11.7421 26.0473 11.7504 26.0634 11.7457 26.0696C11.7348 26.0836 11.6596 26.0473 11.52 26.1411C11.3182 26.2754 10.982 26.1411 10.7801 26.4097C10.5783 26.6783 10.6457 26.6783 10.3095 26.88C9.97332 27.0817 9.77148 27.216 9.5022 27.216C9.23344 27.216 8.69539 27.6194 8.49356 27.216C8.29172 26.8126 8.22479 26.7457 7.95551 26.6114C7.68675 26.4771 7.61929 26.208 7.35053 26.1411C7.08073 26.0737 7.21563 25.6034 7.68623 25.2674Z" fill="#01A0C7"/>
<path d="M43.776 16.664V11.216H48.288C48.696 11.216 48.936 10.832 48.936 10.376C48.936 9.896 48.696 9.512 48.288 9.512H33.768V7.328C33.768 6.656 34.032 6.464 34.824 6.392C38.04 6.176 42.456 5.648 46.176 4.592C46.56 4.496 46.776 4.208 46.776 3.848C46.776 3.704 46.752 3.56 46.68 3.416C46.56 3.008 46.248 2.84 45.888 2.84C45.744 2.84 45.576 2.864 45.432 2.912C41.976 4.04 37.536 4.52 34.032 4.76C32.616 4.832 31.896 5.432 31.896 6.896V16.664H28.44C28.032 16.664 27.792 17.048 27.792 17.528C27.792 18.008 28.032 18.392 28.44 18.392H49.272C49.68 18.392 49.92 18.008 49.92 17.528C49.92 17.048 49.68 16.664 49.272 16.664H43.776ZM41.928 11.216V16.664H33.768V11.216H41.928ZM35.736 19.664C35.544 19.496 35.328 19.4 35.088 19.4C34.848 19.4 34.584 19.496 34.344 19.736C33.096 21.056 30.84 22.424 28.848 23.264C28.488 23.384 28.32 23.672 28.32 24.008C28.32 24.152 28.368 24.296 28.44 24.464C28.608 24.824 28.896 25.04 29.256 25.04C29.4 25.04 29.568 25.016 29.736 24.944C31.8 24.08 34.176 22.568 35.808 20.936C36 20.744 36.096 20.528 36.096 20.312C36.096 20.072 35.976 19.856 35.736 19.664ZM41.352 19.64C41.112 19.832 40.992 20.072 40.992 20.312C40.992 20.504 41.064 20.672 41.208 20.84C42.888 22.616 45.504 24.248 47.568 24.968C47.712 25.016 47.856 25.04 47.976 25.04C48.36 25.04 48.624 24.848 48.792 24.488C48.864 24.32 48.912 24.152 48.912 24.008C48.912 23.672 48.744 23.384 48.408 23.264C46.344 22.496 44.016 21.08 42.696 19.688C42.48 19.496 42.264 19.376 42 19.376C41.784 19.376 41.568 19.448 41.352 19.64ZM65.448 22.208H73.464C73.872 22.208 74.112 21.896 74.112 21.416C74.112 20.936 73.872 20.672 73.464 20.672H65.448V19.136H70.44C71.76 19.136 72.384 18.632 72.384 17.408V12.992C72.384 11.768 71.76 11.288 70.44 11.288H65.448V9.752H72.888C73.296 9.752 73.512 9.416 73.512 8.96C73.512 8.504 73.296 8.216 72.888 8.216H65.448V7.28C65.448 6.848 65.16 6.632 64.608 6.632C64.08 6.632 63.768 6.848 63.768 7.28V8.216H57.168C56.784 8.216 56.568 8.504 56.568 8.96C56.568 9.416 56.784 9.752 57.168 9.752H63.768V11.288H59.184C57.864 11.288 57.24 11.768 57.24 12.992V17.408C57.24 18.632 57.864 19.136 59.184 19.136H63.768V20.672H56.328C55.92 20.672 55.68 20.96 55.68 21.44C55.68 21.896 55.92 22.208 56.328 22.208H63.768V24.536C63.768 24.992 64.08 25.208 64.608 25.208C65.16 25.208 65.448 24.992 65.448 24.536V22.208ZM65.448 17.72V15.896H70.68V17.168C70.68 17.6 70.464 17.72 69.984 17.72H65.448ZM65.448 14.48V12.704H69.984C70.464 12.704 70.68 12.824 70.68 13.256V14.48H65.448ZM63.768 12.704V14.48H58.944V13.256C58.944 12.824 59.136 12.704 59.616 12.704H63.768ZM63.768 15.896V17.72H59.64C59.16 17.72 58.944 17.576 58.944 17.144V15.896H63.768ZM64.512 4.616V3.224C64.512 2.768 64.176 2.528 63.576 2.528C63.024 2.528 62.664 2.768 62.664 3.224V4.616H55.896C54.384 4.616 53.568 5.408 53.568 6.968C53.568 10.04 53.472 13.88 53.328 16.112C53.112 19.136 52.416 21.536 51.624 23.072C51.528 23.24 51.48 23.432 51.48 23.576C51.48 23.936 51.696 24.2 52.032 24.368C52.2 24.44 52.368 24.488 52.536 24.488C52.92 24.488 53.232 24.272 53.424 23.912C54.384 21.872 54.936 19.28 55.104 16.88C55.296 14.384 55.392 10.52 55.392 7.184C55.392 6.488 55.632 6.2 56.496 6.2H73.296C73.728 6.2 73.944 5.888 73.944 5.408C73.944 4.952 73.728 4.616 73.296 4.616H64.512ZM85.968 18.272V24.44C85.968 24.872 86.352 25.16 86.904 25.16C87.456 25.16 87.864 24.872 87.864 24.44V18.272H97.008C97.44 18.272 97.68 17.912 97.68 17.456C97.68 16.976 97.44 16.64 97.008 16.64H79.944C79.416 16.64 79.176 16.472 79.176 15.944V5.864C79.176 5.408 78.792 5.144 78.216 5.144C77.64 5.144 77.28 5.408 77.28 5.864V16.304C77.28 17.72 77.952 18.272 79.32 18.272H85.968ZM83.88 3.392C82.512 3.392 81.888 3.968 81.888 5.312V13.208C81.888 14.504 82.512 15.056 83.88 15.056H93.072C94.44 15.056 95.064 14.504 95.064 13.208V5.312C95.064 3.968 94.44 3.392 93.072 3.392H83.88ZM93.336 6.848H83.616V5.528C83.616 5.072 83.832 4.904 84.264 4.904H92.688C93.12 4.904 93.336 5.072 93.336 5.528V6.848ZM93.336 10.184H83.616V8.24H93.336V10.184ZM93.336 11.576V13.04C93.336 13.448 93.12 13.616 92.688 13.616H84.264C83.832 13.616 83.616 13.448 83.616 13.04V11.576H93.336ZM82.56 19.376C82.368 19.256 82.2 19.208 82.008 19.208C81.768 19.208 81.552 19.328 81.336 19.568C80.28 20.936 78.84 22.088 77.16 22.952C76.848 23.12 76.68 23.408 76.68 23.72C76.68 23.888 76.728 24.056 76.824 24.224C77.016 24.536 77.304 24.68 77.616 24.68C77.808 24.68 78.024 24.632 78.24 24.512C79.896 23.624 81.624 22.16 82.848 20.624C82.968 20.456 83.04 20.288 83.04 20.12C83.04 19.832 82.872 19.544 82.56 19.376ZM92.616 19.52C92.424 19.304 92.208 19.208 91.944 19.208C91.776 19.208 91.584 19.256 91.392 19.376C91.128 19.568 90.96 19.808 90.96 20.072C90.96 20.264 91.056 20.48 91.224 20.672C92.448 22.112 94.344 23.552 96.144 24.488C96.336 24.584 96.504 24.632 96.672 24.632C96.984 24.632 97.224 24.464 97.44 24.152C97.536 24.008 97.584 23.816 97.584 23.648C97.584 23.288 97.392 22.952 97.032 22.784C95.4 22.016 93.768 20.816 92.616 19.52Z" fill="#444444"/>
</svg>
