<svg width="90" height="28" viewBox="0 0 90 28" fill="none" xmlns="http://www.w3.org/2000/svg">
<path fill-rule="evenodd" clip-rule="evenodd" d="M3.18107 1.81531L4.39154 1.47931C4.39154 1.47931 3.8535 1.07591 4.79521 1.21072C5.7364 1.34502 6.47628 1.27813 6.61066 1.21072C6.74505 1.14331 6.61066 0.874722 7.01433 0.874722C7.41799 0.874722 7.28309 1.07643 7.68676 1.07643C8.09042 1.07643 8.35919 0.807833 8.56102 0.740426C8.76285 0.673018 8.82978 0.471833 9.09907 0.740426C9.36783 1.00902 9.43528 1.21072 9.83895 1.21072C10.2426 1.21072 10.377 1.74843 10.377 2.01702C10.377 2.28561 10.915 2.55472 10.9825 2.82331C11.0499 3.09191 10.915 3.49531 11.5205 3.36102C12.1255 3.22672 12.6636 3.36102 12.6636 3.49531C12.6636 3.62961 12.8654 4.50331 12.7979 4.77191C12.7305 5.0405 12.4617 5.51132 12.2599 5.5782C12.0581 5.64561 11.5875 5.5108 11.52 5.7125C11.4526 5.9142 11.4526 6.5862 11.52 6.78791C11.5875 6.98961 11.6544 7.32561 12.0581 7.45991C12.4617 7.5942 12.4617 7.7285 12.663 7.9302C12.8649 8.13191 12.8649 8.2662 13.2011 8.2662C13.5373 8.2662 14.0754 8.1988 14.1423 8.4005C14.2097 8.6022 14.4785 8.6022 14.8822 8.80391C15.2858 9.00561 15.1509 9.7445 15.4871 9.87932C15.8234 10.0136 16.227 9.74502 16.3614 9.81191C16.4958 9.87932 16.7651 10.5513 17.1682 10.6856C17.5719 10.8199 18.0425 11.0216 18.0425 11.0216C18.0425 11.0216 18.1099 11.8279 18.1099 11.9622C18.1099 12.0965 17.4375 12.2308 17.4375 12.5668C17.4375 12.9028 17.4375 13.5748 17.7063 13.7765C17.975 13.9782 18.1099 13.9782 18.4456 14.0451C18.7818 14.1125 19.1855 14.6497 19.1855 14.6497C19.1855 14.6497 18.9167 15.1874 18.8493 15.5903C18.7818 15.9937 18.4456 16.1949 18.4456 16.3297C18.4456 16.4645 18.9837 16.5983 19.0506 16.8674C19.1181 17.136 19.3194 17.472 19.3868 17.7411C19.4543 18.0097 18.5126 18.8165 18.5126 18.8165L17.6383 18.2119C17.6383 18.2119 17.0333 18.4136 16.5622 18.6153C16.0916 18.817 15.4192 18.817 15.2173 19.0187C15.0155 19.2204 14.4775 19.7581 13.9399 19.6907C13.4019 19.6233 12.8638 19.9593 12.3263 19.7581C11.7883 19.5564 11.3177 18.8844 11.3177 18.8844C11.3177 18.8844 10.6452 18.6827 10.4434 18.5484C10.2416 18.4141 10.0397 18.0781 9.70353 17.7421C9.36731 17.4061 8.49305 17.4061 8.35867 17.4061C8.22429 17.4061 7.75369 17.0027 7.61931 16.9358C7.48493 16.8684 5.7364 16.8684 5.7364 16.8684C5.7364 16.8684 5.7364 17.0701 5.33274 17.2044C4.92907 17.3387 4.45848 17.0027 4.18971 16.9358C3.92095 16.8684 3.71911 16.9358 3.58473 17.0701C3.45035 17.2044 3.04668 17.8764 2.64354 18.0781C2.24039 18.2798 1.70234 18.2798 1.70234 18.1455C1.70234 18.0112 1.97111 17.7421 2.03856 17.3392C2.10601 16.9358 1.7698 16.9358 1.50051 16.2638C1.23175 15.5918 1.50051 15.3901 1.63489 15.1884C1.76928 14.9867 1.63489 14.785 1.56744 14.2478C1.49999 13.7101 1.23123 13.3072 1.49999 12.9038C1.76876 12.5004 1.97059 12.0301 2.17242 11.6941C2.37426 11.3581 2.03804 11.4255 2.37426 11.0221C2.71047 10.6187 3.31545 10.3501 3.3829 10.1484C3.45035 9.94672 3.04668 9.61072 3.04668 9.40902C3.04668 9.20732 3.31545 8.80443 3.45035 8.73702C3.58473 8.66961 3.85401 8.66961 4.12278 8.53532C4.39154 8.40102 4.92959 8.40102 4.99704 7.93072C5.06449 7.46043 5.13142 7.32613 5.13142 7.19132C5.13142 7.05702 4.86266 6.98961 4.59338 6.51932C4.32461 6.04902 4.45899 5.51132 4.45899 5.30961C4.45899 5.10791 3.92095 4.83931 3.92095 4.5702C3.92095 4.30161 3.71911 4.0325 3.71911 3.8308C3.71911 3.62909 3.65166 3.2262 3.65166 2.95709C3.65166 2.6885 3.248 2.62109 3.11362 2.41939C2.97923 2.2182 3.18107 1.81531 3.18107 1.81531Z" fill="#01A0C7"/>
<path fill-rule="evenodd" clip-rule="evenodd" d="M7.68623 25.2674C8.15682 24.9314 8.08989 24.9989 8.42559 24.7297C8.7618 24.4611 9.16547 24.2594 9.29985 23.856C9.43423 23.4526 9.43423 22.9823 9.77045 22.9154C10.1067 22.848 10.241 22.5794 10.3085 22.3108C10.3759 22.0423 10.4429 22.2434 10.5778 21.9074C10.7122 21.5714 10.6452 21.84 11.0484 21.504C11.452 21.168 11.7883 20.2274 11.7883 20.2274L12.2589 20.16C12.2589 20.16 12.6625 20.6303 12.5276 20.832C12.3932 21.0337 12.5276 21.6383 12.2589 21.6383C11.9901 21.6383 11.9901 22.1086 11.9901 22.1086C11.9901 22.1086 11.452 22.512 11.3177 22.7806C11.1833 23.0492 11.0489 23.2509 10.8471 23.3183C10.6452 23.3857 10.6452 23.52 10.6452 23.856C10.6452 24.192 10.5778 24.3937 10.8471 24.6623C11.1163 24.9309 10.9145 25.2669 11.3177 25.4686C11.7213 25.6703 11.6539 25.872 11.7213 26.0063C11.7421 26.0473 11.7504 26.0634 11.7457 26.0696C11.7348 26.0836 11.6596 26.0473 11.52 26.1411C11.3182 26.2754 10.982 26.1411 10.7801 26.4097C10.5783 26.6783 10.6457 26.6783 10.3095 26.88C9.97332 27.0817 9.77148 27.216 9.5022 27.216C9.23344 27.216 8.69539 27.6194 8.49356 27.216C8.29172 26.8126 8.22479 26.7457 7.95551 26.6114C7.68675 26.4771 7.61929 26.208 7.35053 26.1411C7.08073 26.0737 7.21563 25.6034 7.68623 25.2674Z" fill="#01A0C7"/>
<path d="M33.464 5.976C32.92 5.312 32.248 4.98 31.448 4.98C31.096 4.98 30.768 5.044 30.464 5.172C30.168 5.3 29.912 5.476 29.696 5.7C29.48 5.916 29.308 6.176 29.18 6.48C29.06 6.784 29 7.112 29 7.464C29 7.824 29.06 8.156 29.18 8.46C29.308 8.764 29.48 9.028 29.696 9.252C29.92 9.476 30.18 9.652 30.476 9.78C30.772 9.908 31.092 9.972 31.436 9.972C32.188 9.972 32.864 9.652 33.464 9.012V11.796L33.224 11.88C32.864 12.008 32.528 12.1 32.216 12.156C31.904 12.22 31.596 12.252 31.292 12.252C30.668 12.252 30.068 12.136 29.492 11.904C28.924 11.664 28.42 11.332 27.98 10.908C27.548 10.476 27.2 9.968 26.936 9.384C26.672 8.792 26.54 8.148 26.54 7.452C26.54 6.756 26.668 6.12 26.924 5.544C27.188 4.96 27.536 4.46 27.968 4.044C28.408 3.62 28.916 3.292 29.492 3.06C30.068 2.82 30.672 2.7 31.304 2.7C31.664 2.7 32.016 2.74 32.36 2.82C32.712 2.892 33.08 3.008 33.464 3.168V5.976ZM37.1328 7.476C37.1328 7.836 37.2008 8.168 37.3368 8.472C37.4728 8.776 37.6568 9.04 37.8888 9.264C38.1208 9.488 38.3888 9.664 38.6928 9.792C39.0048 9.912 39.3328 9.972 39.6768 9.972C40.0208 9.972 40.3448 9.912 40.6488 9.792C40.9608 9.664 41.2328 9.488 41.4648 9.264C41.7048 9.04 41.8928 8.776 42.0288 8.472C42.1648 8.168 42.2328 7.836 42.2328 7.476C42.2328 7.116 42.1648 6.784 42.0288 6.48C41.8928 6.176 41.7048 5.912 41.4648 5.688C41.2328 5.464 40.9608 5.292 40.6488 5.172C40.3448 5.044 40.0208 4.98 39.6768 4.98C39.3328 4.98 39.0048 5.044 38.6928 5.172C38.3888 5.292 38.1208 5.464 37.8888 5.688C37.6568 5.912 37.4728 6.176 37.3368 6.48C37.2008 6.784 37.1328 7.116 37.1328 7.476ZM34.6728 7.476C34.6728 6.804 34.7968 6.18 35.0448 5.604C35.2928 5.02 35.6368 4.512 36.0768 4.08C36.5168 3.648 37.0408 3.312 37.6488 3.072C38.2648 2.824 38.9408 2.7 39.6768 2.7C40.4048 2.7 41.0768 2.824 41.6928 3.072C42.3088 3.312 42.8368 3.648 43.2768 4.08C43.7248 4.512 44.0728 5.02 44.3208 5.604C44.5688 6.18 44.6928 6.804 44.6928 7.476C44.6928 8.148 44.5688 8.776 44.3208 9.36C44.0728 9.936 43.7248 10.44 43.2768 10.872C42.8368 11.304 42.3088 11.644 41.6928 11.892C41.0768 12.132 40.4048 12.252 39.6768 12.252C38.9408 12.252 38.2648 12.132 37.6488 11.892C37.0408 11.644 36.5168 11.304 36.0768 10.872C35.6368 10.44 35.2928 9.936 35.0448 9.36C34.7968 8.776 34.6728 8.148 34.6728 7.476ZM47.3646 2.952L49.5486 8.46L51.7446 2.952H54.3006L50.4846 12H48.6126L44.8086 2.952H47.3646ZM57.6008 2.952V12H55.2488V2.952H57.6008ZM61.843 10.008H62.383C62.791 10.008 63.155 9.944 63.475 9.816C63.795 9.688 64.063 9.512 64.279 9.288C64.503 9.064 64.671 8.8 64.783 8.496C64.903 8.184 64.963 7.844 64.963 7.476C64.963 7.116 64.903 6.78 64.783 6.468C64.663 6.156 64.491 5.888 64.267 5.664C64.051 5.44 63.783 5.264 63.463 5.136C63.143 5.008 62.783 4.944 62.383 4.944H61.843V10.008ZM59.491 2.952H62.971C63.587 2.952 64.163 3.076 64.699 3.324C65.243 3.572 65.715 3.904 66.115 4.32C66.523 4.728 66.843 5.208 67.075 5.76C67.307 6.304 67.423 6.876 67.423 7.476C67.423 8.068 67.307 8.64 67.075 9.192C66.851 9.736 66.535 10.216 66.127 10.632C65.727 11.048 65.255 11.38 64.711 11.628C64.175 11.876 63.595 12 62.971 12H59.491V2.952ZM67.9766 7.884H71.4206V9.696H67.9766V7.884ZM74.6019 4.944H73.2819V2.952H76.9539V12H74.6019V4.944ZM80.6139 12L83.1819 9.048H83.1339C82.9099 9.184 82.7259 9.268 82.5819 9.3C82.4379 9.324 82.3099 9.336 82.1979 9.336C81.7579 9.336 81.3499 9.252 80.9739 9.084C80.6059 8.916 80.2859 8.688 80.0139 8.4C79.7499 8.104 79.5419 7.76 79.3899 7.368C79.2379 6.976 79.1619 6.556 79.1619 6.108C79.1619 5.628 79.2499 5.184 79.4259 4.776C79.6019 4.36 79.8539 4 80.1819 3.696C80.5179 3.384 80.9219 3.14 81.3939 2.964C81.8659 2.788 82.3979 2.7 82.9899 2.7C83.5899 2.7 84.1259 2.788 84.5979 2.964C85.0699 3.14 85.4699 3.38 85.7979 3.684C86.1339 3.988 86.3899 4.344 86.5659 4.752C86.7419 5.152 86.8299 5.58 86.8299 6.036C86.8299 6.548 86.7139 7.104 86.4819 7.704C86.2579 8.296 85.9099 8.88 85.4379 9.456L83.3379 12H80.6139ZM84.5019 6.06C84.5019 5.852 84.4619 5.66 84.3819 5.484C84.3019 5.3 84.1939 5.14 84.0579 5.004C83.9219 4.868 83.7619 4.76 83.5779 4.68C83.4019 4.6 83.2099 4.56 83.0019 4.56C82.7939 4.56 82.5979 4.6 82.4139 4.68C82.2379 4.76 82.0819 4.868 81.9459 5.004C81.8099 5.14 81.7019 5.3 81.6219 5.484C81.5419 5.66 81.5019 5.852 81.5019 6.06C81.5019 6.268 81.5419 6.464 81.6219 6.648C81.7019 6.824 81.8099 6.98 81.9459 7.116C82.0819 7.252 82.2379 7.36 82.4139 7.44C82.5979 7.52 82.7939 7.56 83.0019 7.56C83.2099 7.56 83.4019 7.52 83.5779 7.44C83.7619 7.36 83.9219 7.252 84.0579 7.116C84.1939 6.98 84.3019 6.824 84.3819 6.648C84.4619 6.464 84.5019 6.268 84.5019 6.06Z" fill="#444444"/>
<path d="M29.3 19.444H32.696V15.952H35.048V25H32.696V21.268H29.3V25H26.948V15.952H29.3V19.444ZM39.1281 20.656L35.8281 15.952H38.6361L40.3161 18.424L41.9841 15.952H44.7921L41.4801 20.656V25H39.1281V20.656ZM47.0234 20.476C47.0234 20.836 47.0914 21.168 47.2274 21.472C47.3634 21.776 47.5474 22.04 47.7794 22.264C48.0114 22.488 48.2794 22.664 48.5834 22.792C48.8954 22.912 49.2234 22.972 49.5674 22.972C49.9114 22.972 50.2354 22.912 50.5394 22.792C50.8514 22.664 51.1234 22.488 51.3554 22.264C51.5954 22.04 51.7834 21.776 51.9194 21.472C52.0554 21.168 52.1234 20.836 52.1234 20.476C52.1234 20.116 52.0554 19.784 51.9194 19.48C51.7834 19.176 51.5954 18.912 51.3554 18.688C51.1234 18.464 50.8514 18.292 50.5394 18.172C50.2354 18.044 49.9114 17.98 49.5674 17.98C49.2234 17.98 48.8954 18.044 48.5834 18.172C48.2794 18.292 48.0114 18.464 47.7794 18.688C47.5474 18.912 47.3634 19.176 47.2274 19.48C47.0914 19.784 47.0234 20.116 47.0234 20.476ZM44.5634 20.476C44.5634 19.804 44.6874 19.18 44.9354 18.604C45.1834 18.02 45.5274 17.512 45.9674 17.08C46.4074 16.648 46.9314 16.312 47.5394 16.072C48.1554 15.824 48.8314 15.7 49.5674 15.7C50.2954 15.7 50.9674 15.824 51.5834 16.072C52.1994 16.312 52.7274 16.648 53.1674 17.08C53.6154 17.512 53.9634 18.02 54.2114 18.604C54.4594 19.18 54.5834 19.804 54.5834 20.476C54.5834 21.148 54.4594 21.776 54.2114 22.36C53.9634 22.936 53.6154 23.44 53.1674 23.872C52.7274 24.304 52.1994 24.644 51.5834 24.892C50.9674 25.132 50.2954 25.252 49.5674 25.252C48.8314 25.252 48.1554 25.132 47.5394 24.892C46.9314 24.644 46.4074 24.304 45.9674 23.872C45.5274 23.44 45.1834 22.936 44.9354 22.36C44.6874 21.776 44.5634 21.148 44.5634 20.476ZM60.4731 19.936H65.1411C65.1411 20.416 65.1211 20.852 65.0811 21.244C65.0411 21.636 64.9611 22 64.8411 22.336C64.6731 22.808 64.4451 23.228 64.1571 23.596C63.8691 23.956 63.5291 24.26 63.1371 24.508C62.7531 24.748 62.3291 24.932 61.8651 25.06C61.4011 25.188 60.9131 25.252 60.4011 25.252C59.6971 25.252 59.0531 25.136 58.4691 24.904C57.8931 24.672 57.3971 24.348 56.9811 23.932C56.5651 23.508 56.2411 23.004 56.0091 22.42C55.7771 21.828 55.6611 21.176 55.6611 20.464C55.6611 19.76 55.7731 19.116 55.9971 18.532C56.2291 17.94 56.5531 17.436 56.9691 17.02C57.3931 16.604 57.9011 16.28 58.4931 16.048C59.0851 15.816 59.7451 15.7 60.4731 15.7C61.4171 15.7 62.2451 15.904 62.9571 16.312C63.6691 16.72 64.2331 17.352 64.6491 18.208L62.4171 19.132C62.2091 18.636 61.9371 18.28 61.6011 18.064C61.2731 17.848 60.8971 17.74 60.4731 17.74C60.1211 17.74 59.8011 17.808 59.5131 17.944C59.2251 18.072 58.9771 18.26 58.7691 18.508C58.5691 18.748 58.4091 19.04 58.2891 19.384C58.1771 19.728 58.1211 20.112 58.1211 20.536C58.1211 20.92 58.1691 21.276 58.2651 21.604C58.3691 21.932 58.5211 22.216 58.7211 22.456C58.9211 22.696 59.1691 22.884 59.4651 23.02C59.7611 23.148 60.1051 23.212 60.4971 23.212C60.7291 23.212 60.9531 23.188 61.1691 23.14C61.3851 23.084 61.5771 23 61.7451 22.888C61.9211 22.768 62.0651 22.616 62.1771 22.432C62.2891 22.248 62.3651 22.024 62.4051 21.76H60.4731V19.936ZM68.6797 20.476C68.6797 20.836 68.7477 21.168 68.8837 21.472C69.0197 21.776 69.2037 22.04 69.4357 22.264C69.6677 22.488 69.9357 22.664 70.2397 22.792C70.5517 22.912 70.8797 22.972 71.2237 22.972C71.5677 22.972 71.8917 22.912 72.1957 22.792C72.5077 22.664 72.7797 22.488 73.0117 22.264C73.2517 22.04 73.4397 21.776 73.5757 21.472C73.7117 21.168 73.7797 20.836 73.7797 20.476C73.7797 20.116 73.7117 19.784 73.5757 19.48C73.4397 19.176 73.2517 18.912 73.0117 18.688C72.7797 18.464 72.5077 18.292 72.1957 18.172C71.8917 18.044 71.5677 17.98 71.2237 17.98C70.8797 17.98 70.5517 18.044 70.2397 18.172C69.9357 18.292 69.6677 18.464 69.4357 18.688C69.2037 18.912 69.0197 19.176 68.8837 19.48C68.7477 19.784 68.6797 20.116 68.6797 20.476ZM66.2197 20.476C66.2197 19.804 66.3437 19.18 66.5917 18.604C66.8397 18.02 67.1837 17.512 67.6237 17.08C68.0637 16.648 68.5877 16.312 69.1957 16.072C69.8117 15.824 70.4877 15.7 71.2237 15.7C71.9517 15.7 72.6237 15.824 73.2397 16.072C73.8557 16.312 74.3837 16.648 74.8237 17.08C75.2717 17.512 75.6197 18.02 75.8677 18.604C76.1157 19.18 76.2397 19.804 76.2397 20.476C76.2397 21.148 76.1157 21.776 75.8677 22.36C75.6197 22.936 75.2717 23.44 74.8237 23.872C74.3837 24.304 73.8557 24.644 73.2397 24.892C72.6237 25.132 71.9517 25.252 71.2237 25.252C70.4877 25.252 69.8117 25.132 69.1957 24.892C68.5877 24.644 68.0637 24.304 67.6237 23.872C67.1837 23.44 66.8397 22.936 66.5917 22.36C66.3437 21.776 66.2197 21.148 66.2197 20.476Z" fill="#01A0C7"/>
</svg>
