<svg width="330" height="114" viewBox="0 0 330 114" fill="none" xmlns="http://www.w3.org/2000/svg">
<g clip-path="url(#clip0)">
<path fill-rule="evenodd" clip-rule="evenodd" d="M7.63837 5.14288L12.7803 3.7156C12.7803 3.7156 10.4947 2.00198 14.495 2.57466C18.4931 3.14513 21.636 2.861 22.2068 2.57466C22.7776 2.28832 22.2068 1.14738 23.9215 1.14738C25.6362 1.14738 25.0632 2.00419 26.7779 2.00419C28.4926 2.00419 29.6343 0.863244 30.4916 0.576907C31.349 0.29057 31.6333 -0.564036 32.7772 0.576907C33.9189 1.71785 34.2054 2.57466 35.9201 2.57466C37.6348 2.57466 38.2056 4.85875 38.2056 5.99969C38.2056 7.14063 40.4912 8.28378 40.7777 9.42472C41.0642 10.5657 40.4912 12.2793 43.0633 11.7088C45.6331 11.1383 47.9187 11.7088 47.9187 12.2793C47.9187 12.8498 48.776 16.5611 48.4895 17.7021C48.203 18.843 47.0613 20.843 46.204 21.1271C45.3466 21.4134 43.3476 20.8408 43.061 21.6976C42.7745 22.5544 42.7745 25.4089 43.061 26.2657C43.3476 27.1226 43.6319 28.5498 45.3466 29.1203C47.0613 29.6908 47.0613 30.2612 47.9165 31.1181C48.7738 31.9749 48.7738 32.5453 50.202 32.5453C51.6302 32.5453 53.9157 32.259 54.2001 33.1158C54.4866 33.9726 55.6283 33.9726 57.343 34.8294C59.0577 35.6862 58.4846 38.8249 59.9128 39.3976C61.341 39.9681 63.0557 38.8271 63.6266 39.1113C64.1974 39.3976 65.3413 42.2522 67.0538 42.8226C68.7685 43.3931 70.7675 44.2499 70.7675 44.2499C70.7675 44.2499 71.0541 47.6749 71.0541 48.2454C71.0541 48.8159 68.1977 49.3864 68.1977 50.8136C68.1977 52.2409 68.1977 55.0955 69.3393 55.9523C70.481 56.8091 71.0541 56.8091 72.48 57.0932C73.9082 57.3796 75.6229 59.6615 75.6229 59.6615C75.6229 59.6615 74.4813 61.9455 74.1947 63.657C73.9082 65.3706 72.48 66.2252 72.48 66.7978C72.48 67.3705 74.7656 67.9388 75.0499 69.0819C75.3364 70.2229 76.1916 71.6502 76.4781 72.7933C76.7646 73.9343 72.7644 77.3615 72.7644 77.3615L69.0506 74.7933C69.0506 74.7933 66.4807 75.6501 64.4795 76.5069C62.4805 77.3637 59.6241 77.3637 58.7668 78.2205C57.9094 79.0773 55.6238 81.3614 53.3405 81.0751C51.055 80.7887 48.7694 82.216 46.4861 81.3614C44.2005 80.5046 42.2015 77.65 42.2015 77.65C42.2015 77.65 39.3451 76.7932 38.4877 76.2227C37.6304 75.6523 36.773 74.225 35.3448 72.7977C33.9167 71.3704 30.2029 71.3704 29.6321 71.3704C29.0612 71.3704 27.0622 69.6568 26.4914 69.3727C25.9205 69.0863 18.4931 69.0863 18.4931 69.0863C18.4931 69.0863 18.4931 69.9432 16.7784 70.5136C15.0636 71.0841 13.0646 69.6568 11.9229 69.3727C10.7813 69.0863 9.92391 69.3727 9.35308 69.9432C8.78224 70.5136 7.06753 73.3682 5.35502 74.225C3.64251 75.0818 1.35697 75.0818 1.35697 74.5113C1.35697 73.9409 2.49864 72.7977 2.78516 71.0863C3.07168 69.3727 1.64349 69.3727 0.49961 66.5181C-0.642062 63.6636 0.49961 62.8068 1.07045 61.9499C1.64128 61.0931 1.07045 60.2363 0.783926 57.9544C0.497406 55.6704 -0.644266 53.9589 0.497406 52.2453C1.63908 50.5317 2.49643 48.534 3.35379 47.1067C4.21115 45.6794 2.78295 45.9657 4.21115 44.2521C5.63934 42.5385 8.2092 41.3976 8.49572 40.5407C8.78224 39.6839 7.06753 38.2567 7.06753 37.3999C7.06753 36.543 8.2092 34.8316 8.78224 34.5453C9.35308 34.259 10.497 34.259 11.6386 33.6885C12.7803 33.118 15.0658 33.118 15.3524 31.1203C15.6389 29.1225 15.9232 28.552 15.9232 27.9794C15.9232 27.4089 14.7815 27.1226 13.6377 25.1248C12.496 23.1271 13.0668 20.843 13.0668 19.9862C13.0668 19.1293 10.7813 17.9884 10.7813 16.8453C10.7813 15.7043 9.92391 14.5612 9.92391 13.7044C9.92391 12.8476 9.63739 11.1361 9.63739 9.99299C9.63739 8.85205 7.92268 8.56571 7.35184 7.7089C6.78101 6.8543 7.63837 5.14288 7.63837 5.14288Z" fill="#01A0C7"/>
<path fill-rule="evenodd" clip-rule="evenodd" d="M26.7757 104.764C28.7747 103.337 28.4904 103.623 29.9164 102.48C31.3446 101.339 33.0593 100.482 33.6301 98.7687C34.201 97.0551 34.201 95.0573 35.6292 94.7732C37.0574 94.4868 37.6282 93.3459 37.9147 92.205C38.2012 91.064 38.4855 91.9186 39.0586 90.4913C39.6294 89.0641 39.3451 90.205 41.0576 88.7777C42.7723 87.3504 44.2005 83.3549 44.2005 83.3549L46.1996 83.0686C46.1996 83.0686 47.9143 85.0664 47.3412 85.9232C46.7704 86.78 47.3412 89.3482 46.1996 89.3482C45.0579 89.3482 45.0579 91.346 45.0579 91.346C45.0579 91.346 42.7723 93.0596 42.2015 94.2005C41.6307 95.3415 41.0598 96.1983 40.2025 96.4846C39.3451 96.7709 39.3451 97.3414 39.3451 98.7687C39.3451 100.196 39.0586 101.053 40.2025 102.194C41.3463 103.335 40.489 104.762 42.2015 105.619C43.9162 106.476 43.6297 107.332 43.9162 107.903C44.0044 108.077 44.0396 108.145 44.0198 108.172C43.9735 108.231 43.6539 108.077 43.0611 108.476C42.2037 109.046 40.7755 108.476 39.9182 109.616C39.0608 110.757 39.3473 110.757 37.9191 111.614C36.4909 112.471 35.6336 113.041 34.4897 113.041C33.348 113.041 31.0625 114.755 30.2051 113.041C29.3478 111.328 29.0634 111.044 27.9196 110.473C26.7779 109.903 26.4914 108.76 25.3497 108.476C24.2036 108.189 24.7767 106.191 26.7757 104.764Z" fill="#01A0C7"/>
</g>
<path d="M115.856 18.904C113.68 16.248 110.992 14.92 107.792 14.92C106.384 14.92 105.072 15.176 103.856 15.688C102.672 16.2 101.648 16.904 100.784 17.8C99.92 18.664 99.232 19.704 98.72 20.92C98.24 22.136 98 23.448 98 24.856C98 26.296 98.24 27.624 98.72 28.84C99.232 30.056 99.92 31.112 100.784 32.008C101.68 32.904 102.72 33.608 103.904 34.12C105.088 34.632 106.368 34.888 107.744 34.888C110.752 34.888 113.456 33.608 115.856 31.048V42.184L114.896 42.52C113.456 43.032 112.112 43.4 110.864 43.624C109.616 43.88 108.384 44.008 107.168 44.008C104.672 44.008 102.272 43.544 99.968 42.616C97.696 41.656 95.68 40.328 93.92 38.632C92.192 36.904 90.8 34.872 89.744 32.536C88.688 30.168 88.16 27.592 88.16 24.808C88.16 22.024 88.672 19.48 89.696 17.176C90.752 14.84 92.144 12.84 93.872 11.176C95.632 9.48 97.664 8.168 99.968 7.24C102.272 6.28 104.688 5.8 107.216 5.8C108.656 5.8 110.064 5.96 111.44 6.28C112.848 6.568 114.32 7.032 115.856 7.672V18.904ZM130.531 24.904C130.531 26.344 130.803 27.672 131.347 28.888C131.891 30.104 132.627 31.16 133.555 32.056C134.483 32.952 135.555 33.656 136.771 34.168C138.019 34.648 139.331 34.888 140.707 34.888C142.083 34.888 143.379 34.648 144.595 34.168C145.843 33.656 146.931 32.952 147.859 32.056C148.819 31.16 149.571 30.104 150.115 28.888C150.659 27.672 150.931 26.344 150.931 24.904C150.931 23.464 150.659 22.136 150.115 20.92C149.571 19.704 148.819 18.648 147.859 17.752C146.931 16.856 145.843 16.168 144.595 15.688C143.379 15.176 142.083 14.92 140.707 14.92C139.331 14.92 138.019 15.176 136.771 15.688C135.555 16.168 134.483 16.856 133.555 17.752C132.627 18.648 131.891 19.704 131.347 20.92C130.803 22.136 130.531 23.464 130.531 24.904ZM120.691 24.904C120.691 22.216 121.187 19.72 122.179 17.416C123.171 15.08 124.547 13.048 126.307 11.32C128.067 9.592 130.163 8.248 132.595 7.288C135.059 6.296 137.763 5.8 140.707 5.8C143.619 5.8 146.307 6.296 148.771 7.288C151.235 8.248 153.347 9.592 155.107 11.32C156.899 13.048 158.291 15.08 159.283 17.416C160.275 19.72 160.771 22.216 160.771 24.904C160.771 27.592 160.275 30.104 159.283 32.44C158.291 34.744 156.899 36.76 155.107 38.488C153.347 40.216 151.235 41.576 148.771 42.568C146.307 43.528 143.619 44.008 140.707 44.008C137.763 44.008 135.059 43.528 132.595 42.568C130.163 41.576 128.067 40.216 126.307 38.488C124.547 36.76 123.171 34.744 122.179 32.44C121.187 30.104 120.691 27.592 120.691 24.904ZM171.458 6.808L180.194 28.84L188.978 6.808H199.202L183.938 43H176.45L161.234 6.808H171.458ZM212.403 6.808V43H202.995V6.808H212.403ZM229.372 35.032H231.532C233.164 35.032 234.62 34.776 235.9 34.264C237.18 33.752 238.252 33.048 239.116 32.152C240.012 31.256 240.684 30.2 241.132 28.984C241.612 27.736 241.852 26.376 241.852 24.904C241.852 23.464 241.612 22.12 241.132 20.872C240.652 19.624 239.964 18.552 239.068 17.656C238.204 16.76 237.132 16.056 235.852 15.544C234.572 15.032 233.132 14.776 231.532 14.776H229.372V35.032ZM219.964 6.808H233.884C236.348 6.808 238.652 7.304 240.796 8.296C242.972 9.288 244.86 10.616 246.46 12.28C248.092 13.912 249.372 15.832 250.3 18.04C251.228 20.216 251.692 22.504 251.692 24.904C251.692 27.272 251.228 29.56 250.3 31.768C249.404 33.944 248.14 35.864 246.508 37.528C244.908 39.192 243.02 40.52 240.844 41.512C238.7 42.504 236.38 43 233.884 43H219.964V6.808ZM253.906 26.536H267.682V33.784H253.906V26.536ZM280.408 14.776H275.128V6.808H289.816V43H280.408V14.776ZM304.456 43L314.728 31.192H314.536C313.64 31.736 312.904 32.072 312.328 32.2C311.752 32.296 311.24 32.344 310.792 32.344C309.032 32.344 307.4 32.008 305.896 31.336C304.424 30.664 303.144 29.752 302.056 28.6C301 27.416 300.168 26.04 299.56 24.472C298.952 22.904 298.648 21.224 298.648 19.432C298.648 17.512 299 15.736 299.704 14.104C300.408 12.44 301.416 11 302.728 9.784C304.072 8.536 305.688 7.56 307.576 6.856C309.464 6.152 311.592 5.8 313.96 5.8C316.36 5.8 318.504 6.152 320.392 6.856C322.28 7.56 323.88 8.52 325.192 9.736C326.536 10.952 327.56 12.376 328.264 14.008C328.968 15.608 329.32 17.32 329.32 19.144C329.32 21.192 328.856 23.416 327.928 25.816C327.032 28.184 325.64 30.52 323.752 32.824L315.352 43H304.456ZM320.008 19.24C320.008 18.408 319.848 17.64 319.528 16.936C319.208 16.2 318.776 15.56 318.232 15.016C317.688 14.472 317.048 14.04 316.312 13.72C315.608 13.4 314.84 13.24 314.008 13.24C313.176 13.24 312.392 13.4 311.656 13.72C310.952 14.04 310.328 14.472 309.784 15.016C309.24 15.56 308.808 16.2 308.488 16.936C308.168 17.64 308.008 18.408 308.008 19.24C308.008 20.072 308.168 20.856 308.488 21.592C308.808 22.296 309.24 22.92 309.784 23.464C310.328 24.008 310.952 24.44 311.656 24.76C312.392 25.08 313.176 25.24 314.008 25.24C314.84 25.24 315.608 25.08 316.312 24.76C317.048 24.44 317.688 24.008 318.232 23.464C318.776 22.92 319.208 22.296 319.528 21.592C319.848 20.856 320.008 20.072 320.008 19.24Z" fill="#444444"/>
<path d="M102.95 82.146H119.364V65.268H130.732V109H119.364V90.962H102.95V109H91.582V65.268H102.95V82.146ZM150.452 88.004L134.502 65.268H148.074L156.194 77.216L164.256 65.268H177.828L161.82 88.004V109H150.452V88.004ZM188.613 87.134C188.613 88.874 188.942 90.4787 189.599 91.948C190.257 93.4173 191.146 94.6933 192.267 95.776C193.389 96.8587 194.684 97.7093 196.153 98.328C197.661 98.908 199.247 99.198 200.909 99.198C202.572 99.198 204.138 98.908 205.607 98.328C207.115 97.7093 208.43 96.8587 209.551 95.776C210.711 94.6933 211.62 93.4173 212.277 91.948C212.935 90.4787 213.263 88.874 213.263 87.134C213.263 85.394 212.935 83.7893 212.277 82.32C211.62 80.8507 210.711 79.5747 209.551 78.492C208.43 77.4093 207.115 76.578 205.607 75.998C204.138 75.3793 202.572 75.07 200.909 75.07C199.247 75.07 197.661 75.3793 196.153 75.998C194.684 76.578 193.389 77.4093 192.267 78.492C191.146 79.5747 190.257 80.8507 189.599 82.32C188.942 83.7893 188.613 85.394 188.613 87.134ZM176.723 87.134C176.723 83.886 177.323 80.87 178.521 78.086C179.72 75.2633 181.383 72.808 183.509 70.72C185.636 68.632 188.169 67.008 191.107 65.848C194.085 64.6493 197.352 64.05 200.909 64.05C204.428 64.05 207.676 64.6493 210.653 65.848C213.631 67.008 216.183 68.632 218.309 70.72C220.475 72.808 222.157 75.2633 223.355 78.086C224.554 80.87 225.153 83.886 225.153 87.134C225.153 90.382 224.554 93.4173 223.355 96.24C222.157 99.024 220.475 101.46 218.309 103.548C216.183 105.636 213.631 107.279 210.653 108.478C207.676 109.638 204.428 110.218 200.909 110.218C197.352 110.218 194.085 109.638 191.107 108.478C188.169 107.279 185.636 105.636 183.509 103.548C181.383 101.46 179.72 99.024 178.521 96.24C177.323 93.4173 176.723 90.382 176.723 87.134ZM253.62 84.524H276.182C276.182 86.844 276.085 88.9513 275.892 90.846C275.699 92.7407 275.312 94.5 274.732 96.124C273.92 98.4053 272.818 100.435 271.426 102.214C270.034 103.954 268.391 105.423 266.496 106.622C264.64 107.782 262.591 108.671 260.348 109.29C258.105 109.909 255.747 110.218 253.272 110.218C249.869 110.218 246.757 109.657 243.934 108.536C241.15 107.415 238.753 105.849 236.742 103.838C234.731 101.789 233.165 99.3527 232.044 96.53C230.923 93.6687 230.362 90.5173 230.362 87.076C230.362 83.6733 230.903 80.5607 231.986 77.738C233.107 74.8767 234.673 72.4407 236.684 70.43C238.733 68.4193 241.189 66.8533 244.05 65.732C246.911 64.6107 250.101 64.05 253.62 64.05C258.183 64.05 262.185 65.036 265.626 67.008C269.067 68.98 271.793 72.0347 273.804 76.172L263.016 80.638C262.011 78.2407 260.696 76.52 259.072 75.476C257.487 74.432 255.669 73.91 253.62 73.91C251.919 73.91 250.372 74.2387 248.98 74.896C247.588 75.5147 246.389 76.4233 245.384 77.622C244.417 78.782 243.644 80.1933 243.064 81.856C242.523 83.5187 242.252 85.3747 242.252 87.424C242.252 89.28 242.484 91.0007 242.948 92.586C243.451 94.1713 244.185 95.544 245.152 96.704C246.119 97.864 247.317 98.7727 248.748 99.43C250.179 100.049 251.841 100.358 253.736 100.358C254.857 100.358 255.94 100.242 256.984 100.01C258.028 99.7393 258.956 99.3333 259.768 98.792C260.619 98.212 261.315 97.4773 261.856 96.588C262.397 95.6987 262.765 94.616 262.958 93.34H253.62V84.524ZM293.285 87.134C293.285 88.874 293.614 90.4787 294.271 91.948C294.928 93.4173 295.818 94.6933 296.939 95.776C298.06 96.8587 299.356 97.7093 300.825 98.328C302.333 98.908 303.918 99.198 305.581 99.198C307.244 99.198 308.81 98.908 310.279 98.328C311.787 97.7093 313.102 96.8587 314.223 95.776C315.383 94.6933 316.292 93.4173 316.949 91.948C317.606 90.4787 317.935 88.874 317.935 87.134C317.935 85.394 317.606 83.7893 316.949 82.32C316.292 80.8507 315.383 79.5747 314.223 78.492C313.102 77.4093 311.787 76.578 310.279 75.998C308.81 75.3793 307.244 75.07 305.581 75.07C303.918 75.07 302.333 75.3793 300.825 75.998C299.356 76.578 298.06 77.4093 296.939 78.492C295.818 79.5747 294.928 80.8507 294.271 82.32C293.614 83.7893 293.285 85.394 293.285 87.134ZM281.395 87.134C281.395 83.886 281.994 80.87 283.193 78.086C284.392 75.2633 286.054 72.808 288.181 70.72C290.308 68.632 292.84 67.008 295.779 65.848C298.756 64.6493 302.024 64.05 305.581 64.05C309.1 64.05 312.348 64.6493 315.325 65.848C318.302 67.008 320.854 68.632 322.981 70.72C325.146 72.808 326.828 75.2633 328.027 78.086C329.226 80.87 329.825 83.886 329.825 87.134C329.825 90.382 329.226 93.4173 328.027 96.24C326.828 99.024 325.146 101.46 322.981 103.548C320.854 105.636 318.302 107.279 315.325 108.478C312.348 109.638 309.1 110.218 305.581 110.218C302.024 110.218 298.756 109.638 295.779 108.478C292.84 107.279 290.308 105.636 288.181 103.548C286.054 101.46 284.392 99.024 283.193 96.24C281.994 93.4173 281.395 90.382 281.395 87.134Z" fill="#01A0C7"/>
<defs>
<clipPath id="clip0">
<path d="M0 0H76.76V114H0V0Z" fill="white"/>
</clipPath>
</defs>
</svg>
